<svg width="20" height="21" viewBox="0 0 20 21" fill="none" xmlns="http://www.w3.org/2000/svg">
<path d="M17.5 4.2254H2.5C2.16848 4.2254 1.85054 4.3571 1.61612 4.59152C1.3817 4.82594 1.25 5.14388 1.25 5.4754V7.3504C1.25 7.68192 1.3817 7.99987 1.61612 8.23429C1.85054 8.46871 2.16848 8.6004 2.5 8.6004V15.4754C2.5 15.8069 2.6317 16.1249 2.86612 16.3593C3.10054 16.5937 3.41848 16.7254 3.75 16.7254H16.25C16.5815 16.7254 16.8995 16.5937 17.1339 16.3593C17.3683 16.1249 17.5 15.8069 17.5 15.4754V8.6004C17.8315 8.6004 18.1495 8.46871 18.3839 8.23429C18.6183 7.99987 18.75 7.68192 18.75 7.3504V5.4754C18.75 5.14388 18.6183 4.82594 18.3839 4.59152C18.1495 4.3571 17.8315 4.2254 17.5 4.2254ZM16.25 15.4754H3.75V8.6004H16.25V15.4754ZM17.5 7.3504H2.5V5.4754H17.5V7.3504ZM7.5 11.1004C7.5 10.9346 7.56585 10.7757 7.68306 10.6585C7.80027 10.5413 7.95924 10.4754 8.125 10.4754H11.875C12.0408 10.4754 12.1997 10.5413 12.3169 10.6585C12.4342 10.7757 12.5 10.9346 12.5 11.1004C12.5 11.2662 12.4342 11.4251 12.3169 11.5423C12.1997 11.6596 12.0408 11.7254 11.875 11.7254H8.125C7.95924 11.7254 7.80027 11.6596 7.68306 11.5423C7.56585 11.4251 7.5 11.2662 7.5 11.1004Z" fill="white"/>
</svg>
