<svg width="23" height="24" viewBox="0 0 23 24" fill="none" xmlns="http://www.w3.org/2000/svg">
<path d="M20.8438 11.7377C20.8438 11.9283 20.768 12.1111 20.6332 12.2459C20.4984 12.3807 20.3156 12.4565 20.125 12.4565H8.20363L13.446 17.6979C13.5128 17.7647 13.5658 17.844 13.6019 17.9312C13.638 18.0185 13.6567 18.112 13.6567 18.2065C13.6567 18.3009 13.638 18.3944 13.6019 18.4817C13.5658 18.5689 13.5128 18.6482 13.446 18.715C13.3792 18.7817 13.3 18.8347 13.2127 18.8709C13.1255 18.907 13.0319 18.9256 12.9375 18.9256C12.8431 18.9256 12.7495 18.907 12.6623 18.8709C12.575 18.8347 12.4958 18.7817 12.429 18.715L5.96023 12.2462C5.89341 12.1795 5.84039 12.1002 5.80422 12.0129C5.76805 11.9257 5.74943 11.8322 5.74943 11.7377C5.74943 11.6432 5.76805 11.5497 5.80422 11.4625C5.84039 11.3752 5.89341 11.2959 5.96023 11.2292L12.429 4.76044C12.4958 4.69366 12.575 4.64068 12.6623 4.60454C12.7495 4.5684 12.8431 4.5498 12.9375 4.5498C13.0319 4.5498 13.1255 4.5684 13.2127 4.60454C13.3 4.64068 13.3792 4.69366 13.446 4.76044C13.5128 4.82722 13.5658 4.90649 13.6019 4.99374C13.638 5.081 13.6567 5.17451 13.6567 5.26895C13.6567 5.36339 13.638 5.45691 13.6019 5.54416C13.5658 5.63141 13.5128 5.71069 13.446 5.77747L8.20363 11.019H20.125C20.3156 11.019 20.4984 11.0947 20.6332 11.2295C20.768 11.3643 20.8438 11.5471 20.8438 11.7377ZM3.59375 3.1127C3.40313 3.1127 3.22031 3.18843 3.08552 3.32322C2.95073 3.45801 2.875 3.64083 2.875 3.83145V19.644C2.875 19.8346 2.95073 20.0174 3.08552 20.1522C3.22031 20.287 3.40313 20.3627 3.59375 20.3627C3.78437 20.3627 3.96719 20.287 4.10198 20.1522C4.23677 20.0174 4.3125 19.8346 4.3125 19.644V3.83145C4.3125 3.64083 4.23677 3.45801 4.10198 3.32322C3.96719 3.18843 3.78437 3.1127 3.59375 3.1127Z" fill="#343330"/>
</svg>
