<svg width="20" height="20" viewBox="0 0 20 20" fill="none" xmlns="http://www.w3.org/2000/svg">
<path d="M17.4344 5.34531L16.1844 2.84531C16.1324 2.74148 16.0526 2.65417 15.9538 2.59317C15.855 2.53218 15.7411 2.49992 15.625 2.5H4.375C4.25889 2.49992 4.14505 2.53218 4.04625 2.59317C3.94744 2.65417 3.86759 2.74148 3.81563 2.84531L2.56563 5.34531C2.52254 5.43226 2.50009 5.52797 2.5 5.625V16.25C2.5 16.5815 2.6317 16.8995 2.86612 17.1339C3.10054 17.3683 3.41848 17.5 3.75 17.5H16.25C16.5815 17.5 16.8995 17.3683 17.1339 17.1339C17.3683 16.8995 17.5 16.5815 17.5 16.25V5.625C17.4999 5.52797 17.4775 5.43226 17.4344 5.34531ZM4.76094 3.75H15.2391L15.8641 5H4.13594L4.76094 3.75ZM16.25 16.25H3.75V6.25H16.25V16.25ZM12.9422 10.1828C13.0003 10.2409 13.0463 10.3098 13.0777 10.3857C13.1092 10.4616 13.1253 10.5429 13.1253 10.625C13.1253 10.7071 13.1092 10.7884 13.0777 10.8643C13.0463 10.9402 13.0003 11.0091 12.9422 11.0672C12.8841 11.1253 12.8152 11.1713 12.7393 11.2027C12.6634 11.2342 12.5821 11.2503 12.5 11.2503C12.4179 11.2503 12.3366 11.2342 12.2607 11.2027C12.1848 11.1713 12.1159 11.1253 12.0578 11.0672L10.625 9.63359V14.375C10.625 14.5408 10.5592 14.6997 10.4419 14.8169C10.3247 14.9342 10.1658 15 10 15C9.83424 15 9.67527 14.9342 9.55806 14.8169C9.44085 14.6997 9.375 14.5408 9.375 14.375V9.63359L7.94219 11.0672C7.88412 11.1253 7.81518 11.1713 7.73931 11.2027C7.66344 11.2342 7.58212 11.2503 7.5 11.2503C7.41788 11.2503 7.33656 11.2342 7.26069 11.2027C7.18482 11.1713 7.11588 11.1253 7.05781 11.0672C6.99974 11.0091 6.95368 10.9402 6.92225 10.8643C6.89083 10.7884 6.87465 10.7071 6.87465 10.625C6.87465 10.5429 6.89083 10.4616 6.92225 10.3857C6.95368 10.3098 6.99974 10.2409 7.05781 10.1828L9.55781 7.68281C9.61586 7.6247 9.68479 7.5786 9.76066 7.54715C9.83654 7.5157 9.91787 7.49951 10 7.49951C10.0821 7.49951 10.1635 7.5157 10.2393 7.54715C10.3152 7.5786 10.3841 7.6247 10.4422 7.68281L12.9422 10.1828Z" fill="white"/>
</svg>
