<svg width="20" height="20" viewBox="0 0 20 20" fill="none" xmlns="http://www.w3.org/2000/svg">
<path d="M17.4344 5.34531L16.1844 2.84531C16.1324 2.74148 16.0526 2.65417 15.9538 2.59317C15.855 2.53218 15.7411 2.49992 15.625 2.5H4.375C4.25889 2.49992 4.14505 2.53218 4.04625 2.59317C3.94744 2.65417 3.86759 2.74148 3.81563 2.84531L2.56563 5.34531C2.52254 5.43226 2.50009 5.52797 2.5 5.625V16.25C2.5 16.5815 2.6317 16.8995 2.86612 17.1339C3.10054 17.3683 3.41848 17.5 3.75 17.5H16.25C16.5815 17.5 16.8995 17.3683 17.1339 17.1339C17.3683 16.8995 17.5 16.5815 17.5 16.25V5.625C17.4999 5.52797 17.4775 5.43226 17.4344 5.34531ZM4.76094 3.75H15.2391L15.8641 5H4.13594L4.76094 3.75ZM16.25 16.25H3.75V6.25H16.25V16.25ZM12.9422 11.4328C13.0003 11.4909 13.0464 11.5598 13.0779 11.6357C13.1093 11.7115 13.1255 11.7929 13.1255 11.875C13.1255 11.9571 13.1093 12.0385 13.0779 12.1143C13.0464 12.1902 13.0003 12.2591 12.9422 12.3172L10.4422 14.8172C10.3841 14.8753 10.3152 14.9214 10.2393 14.9529C10.1635 14.9843 10.0821 15.0005 10 15.0005C9.91787 15.0005 9.83654 14.9843 9.76066 14.9529C9.68479 14.9214 9.61586 14.8753 9.55781 14.8172L7.05781 12.3172C6.94054 12.1999 6.87465 12.0409 6.87465 11.875C6.87465 11.7091 6.94054 11.5501 7.05781 11.4328C7.17509 11.3155 7.33415 11.2497 7.5 11.2497C7.66585 11.2497 7.82491 11.3155 7.94219 11.4328L9.375 12.8664V8.125C9.375 7.95924 9.44085 7.80027 9.55806 7.68306C9.67527 7.56585 9.83424 7.5 10 7.5C10.1658 7.5 10.3247 7.56585 10.4419 7.68306C10.5592 7.80027 10.625 7.95924 10.625 8.125V12.8664L12.0578 11.4328C12.1159 11.3747 12.1848 11.3286 12.2607 11.2971C12.3365 11.2657 12.4179 11.2495 12.5 11.2495C12.5821 11.2495 12.6635 11.2657 12.7393 11.2971C12.8152 11.3286 12.8841 11.3747 12.9422 11.4328Z" fill="white"/>
</svg>
