<svg width="15" height="15" viewBox="0 0 15 15" fill="none" xmlns="http://www.w3.org/2000/svg">
<path d="M12.1875 1.875H10.7812V1.40625C10.7812 1.28193 10.7319 1.1627 10.644 1.07479C10.556 0.986886 10.4368 0.9375 10.3125 0.9375C10.1882 0.9375 10.069 0.986886 9.98104 1.07479C9.89314 1.1627 9.84375 1.28193 9.84375 1.40625V1.875H5.15625V1.40625C5.15625 1.28193 5.10686 1.1627 5.01896 1.07479C4.93105 0.986886 4.81182 0.9375 4.6875 0.9375C4.56318 0.9375 4.44395 0.986886 4.35604 1.07479C4.26814 1.1627 4.21875 1.28193 4.21875 1.40625V1.875H2.8125C2.56386 1.875 2.3254 1.97377 2.14959 2.14959C1.97377 2.3254 1.875 2.56386 1.875 2.8125V12.1875C1.875 12.4361 1.97377 12.6746 2.14959 12.8504C2.3254 13.0262 2.56386 13.125 2.8125 13.125H12.1875C12.4361 13.125 12.6746 13.0262 12.8504 12.8504C13.0262 12.6746 13.125 12.4361 13.125 12.1875V2.8125C13.125 2.56386 13.0262 2.3254 12.8504 2.14959C12.6746 1.97377 12.4361 1.875 12.1875 1.875ZM4.21875 2.8125V3.28125C4.21875 3.40557 4.26814 3.5248 4.35604 3.61271C4.44395 3.70061 4.56318 3.75 4.6875 3.75C4.81182 3.75 4.93105 3.70061 5.01896 3.61271C5.10686 3.5248 5.15625 3.40557 5.15625 3.28125V2.8125H9.84375V3.28125C9.84375 3.40557 9.89314 3.5248 9.98104 3.61271C10.069 3.70061 10.1882 3.75 10.3125 3.75C10.4368 3.75 10.556 3.70061 10.644 3.61271C10.7319 3.5248 10.7812 3.40557 10.7812 3.28125V2.8125H12.1875V4.6875H2.8125V2.8125H4.21875ZM12.1875 12.1875H2.8125V5.625H12.1875V12.1875ZM8.20312 7.73438C8.20312 7.87344 8.16189 8.00938 8.08463 8.12501C8.00737 8.24064 7.89755 8.33076 7.76907 8.38398C7.64059 8.4372 7.49922 8.45112 7.36283 8.42399C7.22643 8.39686 7.10115 8.32989 7.00282 8.23156C6.90448 8.13323 6.83752 8.00794 6.81039 7.87155C6.78326 7.73515 6.79718 7.59378 6.8504 7.4653C6.90361 7.33682 6.99374 7.22701 7.10936 7.14975C7.22499 7.07249 7.36094 7.03125 7.5 7.03125C7.68648 7.03125 7.86532 7.10533 7.99718 7.23719C8.12905 7.36905 8.20312 7.54789 8.20312 7.73438ZM10.7812 7.73438C10.7812 7.87344 10.74 8.00938 10.6628 8.12501C10.5855 8.24064 10.4757 8.33076 10.3472 8.38398C10.2187 8.4372 10.0773 8.45112 9.94095 8.42399C9.80456 8.39686 9.67927 8.32989 9.58094 8.23156C9.48261 8.13323 9.41564 8.00794 9.38851 7.87155C9.36138 7.73515 9.3753 7.59378 9.42852 7.4653C9.48174 7.33682 9.57186 7.22701 9.68749 7.14975C9.80312 7.07249 9.93906 7.03125 10.0781 7.03125C10.2646 7.03125 10.4434 7.10533 10.5753 7.23719C10.7072 7.36905 10.7812 7.54789 10.7812 7.73438ZM5.625 10.0781C5.625 10.2172 5.58376 10.3531 5.5065 10.4688C5.42924 10.5844 5.31943 10.6745 5.19095 10.7277C5.06247 10.7809 4.92109 10.7949 4.7847 10.7677C4.64831 10.7406 4.52302 10.6736 4.42469 10.5753C4.32636 10.477 4.25939 10.3517 4.23226 10.2153C4.20513 10.0789 4.21905 9.93753 4.27227 9.80905C4.32549 9.68057 4.41561 9.57076 4.53124 9.4935C4.64687 9.41624 4.78281 9.375 4.92188 9.375C5.10836 9.375 5.2872 9.44908 5.41906 9.58094C5.55092 9.7128 5.625 9.89164 5.625 10.0781ZM8.20312 10.0781C8.20312 10.2172 8.16189 10.3531 8.08463 10.4688C8.00737 10.5844 7.89755 10.6745 7.76907 10.7277C7.64059 10.7809 7.49922 10.7949 7.36283 10.7677C7.22643 10.7406 7.10115 10.6736 7.00282 10.5753C6.90448 10.477 6.83752 10.3517 6.81039 10.2153C6.78326 10.0789 6.79718 9.93753 6.8504 9.80905C6.90361 9.68057 6.99374 9.57076 7.10936 9.4935C7.22499 9.41624 7.36094 9.375 7.5 9.375C7.68648 9.375 7.86532 9.44908 7.99718 9.58094C8.12905 9.7128 8.20312 9.89164 8.20312 10.0781ZM10.7812 10.0781C10.7812 10.2172 10.74 10.3531 10.6628 10.4688C10.5855 10.5844 10.4757 10.6745 10.3472 10.7277C10.2187 10.7809 10.0773 10.7949 9.94095 10.7677C9.80456 10.7406 9.67927 10.6736 9.58094 10.5753C9.48261 10.477 9.41564 10.3517 9.38851 10.2153C9.36138 10.0789 9.3753 9.93753 9.42852 9.80905C9.48174 9.68057 9.57186 9.57076 9.68749 9.4935C9.80312 9.41624 9.93906 9.375 10.0781 9.375C10.2646 9.375 10.4434 9.44908 10.5753 9.58094C10.7072 9.7128 10.7812 9.89164 10.7812 10.0781Z" fill="#343330"/>
</svg>
