<svg width="20" height="21" viewBox="0 0 20 21" fill="none" xmlns="http://www.w3.org/2000/svg">
<path d="M14.192 13.8078C14.2502 13.8659 14.2963 13.9348 14.3277 14.0107C14.3592 14.0865 14.3754 14.1679 14.3754 14.25C14.3754 14.3321 14.3592 14.4135 14.3277 14.4893C14.2963 14.5652 14.2502 14.6341 14.192 14.6922L10.442 18.4422C10.384 18.5003 10.3151 18.5464 10.2392 18.5779C10.1633 18.6093 10.082 18.6255 9.99986 18.6255C9.91773 18.6255 9.8364 18.6093 9.76052 18.5779C9.68465 18.5464 9.61572 18.5003 9.55767 18.4422L5.80767 14.6922C5.6904 14.5749 5.62451 14.4159 5.62451 14.25C5.62451 14.0842 5.6904 13.9251 5.80767 13.8078C5.92495 13.6905 6.08401 13.6247 6.24986 13.6247C6.41571 13.6247 6.57477 13.6905 6.69205 13.8078L9.99986 17.1164L13.3077 13.8078C13.3657 13.7497 13.4346 13.7036 13.5105 13.6722C13.5864 13.6407 13.6677 13.6245 13.7499 13.6245C13.832 13.6245 13.9133 13.6407 13.9892 13.6722C14.0651 13.7036 14.134 13.7497 14.192 13.8078ZM6.69205 7.19219L9.99986 3.8836L13.3077 7.19219C13.4249 7.30947 13.584 7.37535 13.7499 7.37535C13.9157 7.37535 14.0748 7.30947 14.192 7.19219C14.3093 7.07492 14.3752 6.91586 14.3752 6.75C14.3752 6.58415 14.3093 6.42509 14.192 6.30782L10.442 2.55782C10.384 2.49971 10.3151 2.45361 10.2392 2.42215C10.1633 2.3907 10.082 2.37451 9.99986 2.37451C9.91773 2.37451 9.8364 2.3907 9.76052 2.42215C9.68465 2.45361 9.61572 2.49971 9.55767 2.55782L5.80767 6.30782C5.6904 6.42509 5.62451 6.58415 5.62451 6.75C5.62451 6.91586 5.6904 7.07492 5.80767 7.19219C5.92495 7.30947 6.08401 7.37535 6.24986 7.37535C6.41571 7.37535 6.57477 7.30947 6.69205 7.19219Z" fill="#343330"/>
</svg>
