<svg width="12" height="13" viewBox="0 0 12 13" fill="none" xmlns="http://www.w3.org/2000/svg">
<path d="M10.0155 5.26531L6.26552 9.01531C6.23069 9.05017 6.18934 9.07783 6.14381 9.0967C6.09829 9.11558 6.04949 9.12529 6.00021 9.12529C5.95093 9.12529 5.90213 9.11558 5.85661 9.0967C5.81108 9.07783 5.76972 9.05017 5.7349 9.01531L1.9849 5.26531C1.91453 5.19494 1.875 5.09951 1.875 4.99999C1.875 4.90048 1.91453 4.80505 1.9849 4.73468C2.05526 4.66432 2.1507 4.62479 2.25021 4.62479C2.34972 4.62479 2.44516 4.66432 2.51552 4.73468L6.00021 8.21984L9.4849 4.73468C9.51974 4.69984 9.5611 4.6722 9.60662 4.65335C9.65214 4.63449 9.70094 4.62479 9.75021 4.62479C9.79948 4.62479 9.84827 4.63449 9.8938 4.65335C9.93932 4.6722 9.98068 4.69984 10.0155 4.73468C10.0504 4.76952 10.078 4.81089 10.0969 4.85641C10.1157 4.90193 10.1254 4.95072 10.1254 4.99999C10.1254 5.04927 10.1157 5.09806 10.0969 5.14358C10.078 5.1891 10.0504 5.23047 10.0155 5.26531Z" fill="#343330"/>
</svg>
