<svg width="20" height="21" viewBox="0 0 20 21" fill="none" xmlns="http://www.w3.org/2000/svg">
<path d="M18.125 16.7254C18.125 16.8912 18.0592 17.0501 17.9419 17.1673C17.8247 17.2846 17.6658 17.3504 17.5 17.3504H2.5C2.33424 17.3504 2.17527 17.2846 2.05806 17.1673C1.94085 17.0501 1.875 16.8912 1.875 16.7254V4.2254C1.875 4.05964 1.94085 3.90067 2.05806 3.78346C2.17527 3.66625 2.33424 3.6004 2.5 3.6004C2.66576 3.6004 2.82473 3.66625 2.94194 3.78346C3.05915 3.90067 3.125 4.05964 3.125 4.2254V11.5981L7.08828 8.13165C7.19613 8.03725 7.33315 7.98277 7.47638 7.97737C7.61961 7.97196 7.76034 8.01595 7.875 8.10197L12.4695 11.5481L17.0883 7.50665C17.1488 7.44671 17.221 7.39978 17.3004 7.36875C17.3797 7.33772 17.4646 7.32324 17.5498 7.32621C17.6349 7.32919 17.7186 7.34954 17.7956 7.38603C17.8726 7.42251 17.9413 7.47436 17.9976 7.53838C18.0538 7.6024 18.0963 7.67725 18.1226 7.75832C18.1488 7.83939 18.1582 7.92497 18.1502 8.0098C18.1421 8.09463 18.1168 8.17692 18.0758 8.25162C18.0348 8.32631 17.979 8.39183 17.9117 8.44415L12.9117 12.8192C12.8039 12.9136 12.6669 12.968 12.5236 12.9734C12.3804 12.9788 12.2397 12.9349 12.125 12.8488L7.53047 9.40431L3.125 13.259V16.1004H17.5C17.6658 16.1004 17.8247 16.1663 17.9419 16.2835C18.0592 16.4007 18.125 16.5596 18.125 16.7254Z" fill="#343330"/>
</svg>
