<svg width="20" height="21" viewBox="0 0 20 21" fill="none" xmlns="http://www.w3.org/2000/svg">
<path d="M10.9375 10.5C10.9375 10.6854 10.8825 10.8667 10.7795 11.0208C10.6765 11.175 10.5301 11.2952 10.3588 11.3661C10.1875 11.4371 9.99896 11.4557 9.8171 11.4195C9.63525 11.3833 9.4682 11.294 9.33709 11.1629C9.20598 11.0318 9.11669 10.8648 9.08051 10.6829C9.04434 10.501 9.06291 10.3125 9.13386 10.1412C9.20482 9.96993 9.32498 9.82351 9.47915 9.7205C9.63332 9.61748 9.81458 9.5625 10 9.5625C10.2486 9.5625 10.4871 9.66127 10.6629 9.83709C10.8387 10.0129 10.9375 10.2514 10.9375 10.5ZM15.3125 9.5625C15.1271 9.5625 14.9458 9.61748 14.7917 9.7205C14.6375 9.82351 14.5173 9.96993 14.4464 10.1412C14.3754 10.3125 14.3568 10.501 14.393 10.6829C14.4292 10.8648 14.5185 11.0318 14.6496 11.1629C14.7807 11.294 14.9477 11.3833 15.1296 11.4195C15.3115 11.4557 15.5 11.4371 15.6713 11.3661C15.8426 11.2952 15.989 11.175 16.092 11.0208C16.195 10.8667 16.25 10.6854 16.25 10.5C16.25 10.2514 16.1512 10.0129 15.9754 9.83709C15.7996 9.66127 15.5611 9.5625 15.3125 9.5625ZM4.6875 9.5625C4.50208 9.5625 4.32082 9.61748 4.16665 9.7205C4.01248 9.82351 3.89232 9.96993 3.82136 10.1412C3.75041 10.3125 3.73184 10.501 3.76801 10.6829C3.80419 10.8648 3.89348 11.0318 4.02459 11.1629C4.1557 11.294 4.32275 11.3833 4.5046 11.4195C4.68646 11.4557 4.87496 11.4371 5.04627 11.3661C5.21757 11.2952 5.36399 11.175 5.467 11.0208C5.57002 10.8667 5.625 10.6854 5.625 10.5C5.625 10.2514 5.52623 10.0129 5.35041 9.83709C5.1746 9.66127 4.93614 9.5625 4.6875 9.5625Z" fill="#343330"/>
</svg>
