<svg width="20" height="21" viewBox="0 0 20 21" fill="none" xmlns="http://www.w3.org/2000/svg">
<path d="M4.21249 2.94239C4.15761 2.88052 4.09099 2.83016 4.01649 2.79422C3.942 2.75829 3.86111 2.7375 3.77853 2.73306C3.69594 2.72861 3.61329 2.74061 3.53537 2.76834C3.45746 2.79607 3.38582 2.839 3.32461 2.89462C3.2634 2.95025 3.21384 3.01747 3.17881 3.09238C3.14377 3.1673 3.12395 3.24843 3.1205 3.33106C3.11704 3.4137 3.13003 3.4962 3.15869 3.57378C3.18736 3.65136 3.23114 3.72248 3.28749 3.78301L4.79062 5.43692C1.95312 7.17833 0.732805 9.8627 0.678899 9.98458C0.643362 10.0645 0.625 10.151 0.625 10.2385C0.625 10.326 0.643362 10.4125 0.678899 10.4924C0.706243 10.5541 1.36796 12.0213 2.83905 13.4924C4.79921 15.4518 7.27499 16.4877 9.99999 16.4877C11.4005 16.4957 12.7868 16.2073 14.068 15.6416L15.7867 17.533C15.8416 17.5949 15.9082 17.6452 15.9827 17.6812C16.0572 17.7171 16.1381 17.7379 16.2207 17.7423C16.3033 17.7468 16.3859 17.7348 16.4638 17.7071C16.5417 17.6793 16.6134 17.6364 16.6746 17.5808C16.7358 17.5252 16.7854 17.4579 16.8204 17.383C16.8554 17.3081 16.8753 17.227 16.8787 17.1443C16.8822 17.0617 16.8692 16.9792 16.8405 16.9016C16.8118 16.824 16.7681 16.7529 16.7117 16.6924L4.21249 2.94239ZM7.91015 8.86739L11.1656 12.4494C10.6754 12.7073 10.1134 12.7951 9.56783 12.699C9.02229 12.6029 8.52413 12.3283 8.15157 11.9183C7.77901 11.5084 7.55314 10.9863 7.50945 10.4341C7.46575 9.88191 7.6067 9.33082 7.91015 8.86739ZM9.99999 15.2377C7.5953 15.2377 5.49452 14.3635 3.75546 12.64C3.04164 11.9307 2.43454 11.1214 1.95312 10.2377C2.31952 9.55098 3.48905 7.62911 5.65234 6.37989L7.05859 7.92286C6.51416 8.62013 6.23377 9.48742 6.26697 10.3714C6.30017 11.2554 6.64483 12.0993 7.24002 12.7537C7.83521 13.4082 8.64261 13.8312 9.51952 13.9479C10.3964 14.0646 11.2864 13.8676 12.032 13.3916L13.1828 14.6572C12.1672 15.0469 11.0878 15.2437 9.99999 15.2377ZM10.4687 7.78223C10.3059 7.75115 10.162 7.65665 10.0689 7.51951C9.97568 7.38238 9.94079 7.21384 9.97187 7.05098C10.0029 6.88812 10.0975 6.74428 10.2346 6.6511C10.3717 6.55792 10.5403 6.52303 10.7031 6.55411C11.4997 6.70854 12.225 7.11633 12.7708 7.71668C13.3167 8.31702 13.6539 9.07773 13.732 9.88536C13.7475 10.0504 13.6967 10.2148 13.5909 10.3424C13.4851 10.47 13.333 10.5504 13.168 10.5658C13.1484 10.567 13.1289 10.567 13.1094 10.5658C12.9532 10.5665 12.8024 10.5086 12.6867 10.4037C12.571 10.2987 12.4988 10.1542 12.4844 9.99864C12.4318 9.46145 12.2072 8.95558 11.844 8.55625C11.4809 8.15692 10.9985 7.88546 10.4687 7.78223ZM19.3187 10.4924C19.2859 10.5658 18.4945 12.3182 16.7125 13.9143C16.6516 13.9705 16.5801 14.0141 16.5022 14.0425C16.4243 14.0709 16.3415 14.0835 16.2587 14.0796C16.1759 14.0756 16.0947 14.0553 16.0198 14.0197C15.9449 13.9841 15.8779 13.9339 15.8226 13.8721C15.7673 13.8103 15.7249 13.7382 15.6977 13.6598C15.6706 13.5815 15.6593 13.4985 15.6645 13.4158C15.6698 13.333 15.6914 13.2522 15.7282 13.1779C15.765 13.1036 15.8162 13.0373 15.8789 12.983C16.7532 12.1976 17.4876 11.2692 18.0508 10.2377C17.5683 9.35315 16.9599 8.54339 16.2445 7.8338C14.5055 6.11192 12.4047 5.2377 9.99999 5.2377C9.49332 5.23708 8.98745 5.27811 8.48749 5.36036C8.40619 5.37473 8.32284 5.37286 8.24227 5.35485C8.1617 5.33683 8.08549 5.30303 8.01805 5.25539C7.95062 5.20776 7.89329 5.14723 7.84938 5.07731C7.80547 5.00739 7.77584 4.92947 7.76222 4.84804C7.7486 4.7666 7.75124 4.68328 7.77 4.60288C7.78877 4.52247 7.82327 4.44658 7.87153 4.37959C7.91979 4.3126 7.98085 4.25583 8.05117 4.21257C8.12149 4.16931 8.19969 4.14041 8.28124 4.12754C8.84934 4.03374 9.4242 3.98697 9.99999 3.9877C12.725 3.9877 15.2008 5.02364 17.1609 6.98379C18.632 8.45489 19.2937 9.92286 19.3211 9.98458C19.3566 10.0645 19.375 10.151 19.375 10.2385C19.375 10.326 19.3566 10.4125 19.3211 10.4924H19.3187Z" fill="#343330"/>
</svg>
