<svg width="20" height="21" viewBox="0 0 20 21" fill="none" xmlns="http://www.w3.org/2000/svg">
<path d="M18.1716 8.6057H17.5003V8.57112H10.0003V11.9044H14.7099C14.0228 13.8449 12.1766 15.2378 10.0003 15.2378C7.23908 15.2378 5.00033 12.999 5.00033 10.2378C5.00033 7.47653 7.23908 5.23778 10.0003 5.23778C11.2749 5.23778 12.4345 5.71862 13.3174 6.50403L15.6745 4.14695C14.1862 2.75987 12.1953 1.90445 10.0003 1.90445C5.39824 1.90445 1.66699 5.6357 1.66699 10.2378C1.66699 14.8399 5.39824 18.5711 10.0003 18.5711C14.6024 18.5711 18.3337 14.8399 18.3337 10.2378C18.3337 9.67903 18.2762 9.13362 18.1716 8.6057Z" fill="#FFC107"/>
<path d="M2.62769 6.35894L5.3656 8.36686C6.10644 6.53269 7.9006 5.23769 10.0002 5.23769C11.2748 5.23769 12.4344 5.71852 13.3173 6.50394L15.6744 4.14686C14.186 2.75977 12.1952 1.90436 10.0002 1.90436C6.79935 1.90436 4.02352 3.71144 2.62769 6.35894Z" fill="#FF3D00"/>
<path d="M9.9998 18.5711C12.1523 18.5711 14.1081 17.7473 15.5869 16.4077L13.0077 14.2252C12.1429 14.8829 11.0862 15.2386 9.9998 15.2377C7.8323 15.2377 5.99189 13.8557 5.29855 11.9269L2.58105 14.0207C3.96022 16.7194 6.76105 18.5711 9.9998 18.5711Z" fill="#4CAF50"/>
<path d="M18.1712 8.60563H17.5V8.57104H10V11.9044H14.7096C14.3809 12.8279 13.7889 13.6349 13.0067 14.2256L13.0079 14.2248L15.5871 16.4073C15.4046 16.5731 18.3333 14.4044 18.3333 10.2377C18.3333 9.67896 18.2758 9.13354 18.1712 8.60563Z" fill="#1976D2"/>
</svg>
