<svg width="15" height="15" viewBox="0 0 15 15" fill="none" xmlns="http://www.w3.org/2000/svg">
<path d="M11.7188 7.96875C11.7188 8.09307 11.6694 8.2123 11.5815 8.30021C11.4935 8.38811 11.3743 8.4375 11.25 8.4375H3.75C3.62568 8.4375 3.50645 8.38811 3.41854 8.30021C3.33064 8.2123 3.28125 8.09307 3.28125 7.96875C3.28125 7.84443 3.33064 7.7252 3.41854 7.63729C3.50645 7.54939 3.62568 7.5 3.75 7.5H11.25C11.3743 7.5 11.4935 7.54939 11.5815 7.63729C11.6694 7.7252 11.7188 7.84443 11.7188 7.96875ZM13.5938 4.6875H1.40625C1.28193 4.6875 1.1627 4.73689 1.07479 4.82479C0.986886 4.9127 0.9375 5.03193 0.9375 5.15625C0.9375 5.28057 0.986886 5.3998 1.07479 5.48771C1.1627 5.57561 1.28193 5.625 1.40625 5.625H13.5938C13.7181 5.625 13.8373 5.57561 13.9252 5.48771C14.0131 5.3998 14.0625 5.28057 14.0625 5.15625C14.0625 5.03193 14.0131 4.9127 13.9252 4.82479C13.8373 4.73689 13.7181 4.6875 13.5938 4.6875ZM8.90625 10.3125H6.09375C5.96943 10.3125 5.8502 10.3619 5.76229 10.4498C5.67439 10.5377 5.625 10.6569 5.625 10.7812C5.625 10.9056 5.67439 11.0248 5.76229 11.1127C5.8502 11.2006 5.96943 11.25 6.09375 11.25H8.90625C9.03057 11.25 9.1498 11.2006 9.23771 11.1127C9.32561 11.0248 9.375 10.9056 9.375 10.7812C9.375 10.6569 9.32561 10.5377 9.23771 10.4498C9.1498 10.3619 9.03057 10.3125 8.90625 10.3125Z" fill="#343330"/>
</svg>
