<svg width="16" height="15" viewBox="0 0 16 15" fill="none" xmlns="http://www.w3.org/2000/svg">
<path d="M14.0118 2.90215C13.9397 2.73546 13.8201 2.59365 13.668 2.49437C13.5159 2.39509 13.338 2.34271 13.1564 2.34375H2.84386C2.66241 2.34411 2.48497 2.39711 2.33305 2.49633C2.18114 2.59555 2.06128 2.73673 1.98802 2.90273C1.91476 3.06872 1.89124 3.25242 1.92033 3.43152C1.94941 3.61062 2.02984 3.77743 2.15186 3.91172L2.15655 3.91699L6.12511 8.15449V12.6562C6.12507 12.8259 6.17108 12.9924 6.25823 13.138C6.34538 13.2836 6.47041 13.4028 6.61998 13.4829C6.76955 13.563 6.93806 13.601 7.10754 13.5929C7.27702 13.5848 7.44112 13.5308 7.58233 13.4367L9.45733 12.1863C9.58587 12.1007 9.69126 11.9847 9.76414 11.8485C9.83703 11.7124 9.87514 11.5603 9.87511 11.4059V8.15449L13.8442 3.91699L13.8489 3.91172C13.9722 3.77804 14.0535 3.61101 14.0824 3.43147C14.1114 3.25192 14.0868 3.06782 14.0118 2.90215ZM9.06534 7.65117C8.98425 7.73714 8.93863 7.85057 8.93761 7.96875V11.4059L7.06261 12.6562V7.96875C7.06264 7.84972 7.01739 7.73513 6.93604 7.64824L2.84386 3.28125H13.1564L9.06534 7.65117Z" fill="#343330"/>
</svg>
