<svg width="20" height="21" viewBox="0 0 20 21" fill="none" xmlns="http://www.w3.org/2000/svg">
<path d="M9.99979 6.72541C9.25811 6.72541 8.53309 6.94534 7.9164 7.3574C7.29972 7.76945 6.81907 8.35512 6.53524 9.04035C6.25142 9.72557 6.17715 10.4796 6.32185 11.207C6.46654 11.9344 6.82369 12.6026 7.34814 13.1271C7.87259 13.6515 8.54077 14.0087 9.2682 14.1534C9.99563 14.298 10.7496 14.2238 11.4349 13.94C12.1201 13.6561 12.7057 13.1755 13.1178 12.5588C13.5299 11.9421 13.7498 11.2171 13.7498 10.4754C13.7488 9.48116 13.3533 8.52794 12.6503 7.8249C11.9473 7.12186 10.994 6.72644 9.99979 6.72541ZM9.99979 12.9754C9.50534 12.9754 9.02199 12.8288 8.61087 12.5541C8.19974 12.2794 7.87931 11.8889 7.69009 11.4321C7.50087 10.9753 7.45137 10.4726 7.54783 9.98768C7.64429 9.50273 7.88239 9.05727 8.23203 8.70764C8.58166 8.35801 9.02711 8.11991 9.51207 8.02345C9.99702 7.92698 10.4997 7.97649 10.9565 8.16571C11.4133 8.35493 11.8038 8.67536 12.0785 9.08648C12.3532 9.49761 12.4998 9.98096 12.4998 10.4754C12.4998 11.1385 12.2364 11.7743 11.7676 12.2432C11.2987 12.712 10.6628 12.9754 9.99979 12.9754ZM16.8748 10.6442C16.8779 10.5317 16.8779 10.4192 16.8748 10.3067L18.0404 8.85041C18.1015 8.77395 18.1438 8.6842 18.1639 8.5884C18.184 8.4926 18.1813 8.39341 18.156 8.29885C17.965 7.58057 17.6791 6.89092 17.306 6.24806C17.2572 6.16394 17.1894 6.09238 17.108 6.03907C17.0266 5.98577 16.9339 5.9522 16.8373 5.94103L14.9842 5.73478C14.9071 5.65353 14.829 5.57541 14.7498 5.50041L14.531 3.6426C14.5198 3.54589 14.4861 3.45314 14.4327 3.37176C14.3792 3.29038 14.3075 3.2226 14.2232 3.17385C13.5801 2.80146 12.8905 2.5159 12.1724 2.32463C12.0778 2.29947 11.9786 2.29689 11.8828 2.31711C11.787 2.33733 11.6973 2.37978 11.6209 2.44103L10.1685 3.60041C10.056 3.60041 9.94354 3.60041 9.83104 3.60041L8.37479 2.43713C8.29833 2.37601 8.20859 2.3337 8.11278 2.31362C8.01698 2.29354 7.9178 2.29624 7.82323 2.3215C7.10507 2.51293 6.41546 2.79875 5.77245 3.1715C5.68832 3.22035 5.61676 3.28816 5.56346 3.36954C5.51015 3.45092 5.47658 3.54361 5.46542 3.64025L5.25917 5.4965C5.17792 5.57411 5.09979 5.65223 5.02479 5.73088L3.16698 5.94416C3.07027 5.95541 2.97753 5.9891 2.89614 6.04254C2.81476 6.09598 2.74699 6.1677 2.69823 6.25197C2.32584 6.89507 2.04029 7.58466 1.84901 8.30275C1.82385 8.39738 1.82128 8.4966 1.8415 8.5924C1.86172 8.68821 1.90416 8.77792 1.96542 8.85431L3.12479 10.3067C3.12479 10.4192 3.12479 10.5317 3.12479 10.6442L1.96151 12.1004C1.90039 12.1769 1.85809 12.2666 1.838 12.3624C1.81792 12.4582 1.82062 12.5574 1.84589 12.652C2.03697 13.3703 2.32281 14.0599 2.69589 14.7028C2.74473 14.7869 2.81255 14.8584 2.89392 14.9117C2.9753 14.965 3.068 14.9986 3.16464 15.0098L5.01776 15.216C5.09537 15.2973 5.17349 15.3754 5.25214 15.4504L5.46854 17.3082C5.47979 17.4049 5.51348 17.4977 5.56692 17.5791C5.62037 17.6604 5.69208 17.7282 5.77635 17.777C6.41945 18.1494 7.10904 18.4349 7.82714 18.6262C7.92176 18.6514 8.02098 18.6539 8.11679 18.6337C8.21259 18.6135 8.30231 18.571 8.3787 18.5098L9.83104 17.3504C9.94354 17.3535 10.056 17.3535 10.1685 17.3504L11.6248 18.516C11.7013 18.5772 11.791 18.6195 11.8868 18.6395C11.9826 18.6596 12.0818 18.6569 12.1764 18.6317C12.8946 18.4406 13.5843 18.1547 14.2271 17.7817C14.3113 17.7328 14.3828 17.665 14.4361 17.5836C14.4894 17.5022 14.523 17.4095 14.5342 17.3129L14.7404 15.4598C14.8217 15.3827 14.8998 15.3046 14.9748 15.2254L16.8326 15.0067C16.9293 14.9954 17.0221 14.9617 17.1034 14.9083C17.1848 14.8548 17.2526 14.7831 17.3014 14.6988C17.6737 14.0557 17.9593 13.3662 18.1506 12.6481C18.1757 12.5534 18.1783 12.4542 18.1581 12.3584C18.1379 12.2626 18.0954 12.1729 18.0342 12.0965L16.8748 10.6442ZM15.617 10.1363C15.6303 10.3622 15.6303 10.5886 15.617 10.8145C15.6077 10.9691 15.6561 11.1217 15.7529 11.2426L16.8615 12.6278C16.7343 13.032 16.5714 13.4242 16.3748 13.7996L14.6092 13.9996C14.4554 14.0167 14.3134 14.0902 14.2107 14.2059C14.0603 14.375 13.9002 14.5352 13.731 14.6856C13.6153 14.7883 13.5419 14.9302 13.5248 15.084L13.3287 16.8481C12.9533 17.0448 12.5611 17.2077 12.1568 17.3348L10.7709 16.2262C10.66 16.1376 10.5222 16.0894 10.3803 16.0895H10.3428C10.1169 16.1028 9.89048 16.1028 9.66464 16.0895C9.51001 16.0802 9.35744 16.1286 9.23651 16.2254L7.84745 17.3348C7.44318 17.2076 7.05101 17.0447 6.67557 16.8481L6.47557 15.0848C6.45851 14.931 6.38502 14.7891 6.26932 14.6863C6.10019 14.536 5.94002 14.3758 5.78964 14.2067C5.68693 14.091 5.54496 14.0175 5.3912 14.0004L3.62714 13.8035C3.43041 13.4281 3.26753 13.036 3.14042 12.6317L4.24901 11.2457C4.34581 11.1248 4.39426 10.9722 4.38495 10.8176C4.37167 10.5918 4.37167 10.3653 4.38495 10.1395C4.39426 9.98485 4.34581 9.83228 4.24901 9.71135L3.14042 8.32306C3.26762 7.91879 3.4305 7.52663 3.62714 7.15119L5.39042 6.95119C5.54418 6.93412 5.68615 6.86063 5.78885 6.74494C5.93924 6.57581 6.09941 6.41564 6.26854 6.26525C6.3847 6.16248 6.45849 6.02018 6.47557 5.86603L6.67167 4.10275C7.04706 3.90603 7.43924 3.74314 7.84354 3.61603L9.22948 4.72463C9.35041 4.82143 9.50298 4.86987 9.65761 4.86056C9.88345 4.84728 10.1099 4.84728 10.3357 4.86056C10.4904 4.86987 10.6429 4.82143 10.7639 4.72463L12.1521 3.61603C12.5564 3.74324 12.9486 3.90612 13.324 4.10275L13.524 5.86603C13.5411 6.01979 13.6146 6.16176 13.7303 6.26447C13.8994 6.41485 14.0596 6.57502 14.2099 6.74416C14.3127 6.85985 14.4546 6.93334 14.6084 6.95041L16.3724 7.1465C16.5692 7.52189 16.7321 7.91407 16.8592 8.31838L15.7506 9.70431C15.6528 9.82626 15.6043 9.98041 15.6146 10.1363H15.617Z" fill="#343330"/>
</svg>
