<svg width="20" height="21" viewBox="0 0 20 21" fill="none" xmlns="http://www.w3.org/2000/svg">
<path d="M17.1336 8.96602L10.8836 2.71602C10.6492 2.48177 10.3314 2.35019 10 2.35019C9.66863 2.35019 9.35081 2.48177 9.11641 2.71602L2.86641 8.96602C2.74978 9.08179 2.65732 9.21959 2.59442 9.37142C2.53151 9.52324 2.49942 9.68605 2.50001 9.85039V17.3504C2.50001 17.5162 2.56586 17.6751 2.68307 17.7923C2.80028 17.9095 2.95925 17.9754 3.12501 17.9754H8.12501C8.29077 17.9754 8.44974 17.9095 8.56695 17.7923C8.68416 17.6751 8.75001 17.5162 8.75001 17.3504V12.9754H11.25V17.3504C11.25 17.5162 11.3159 17.6751 11.4331 17.7923C11.5503 17.9095 11.7092 17.9754 11.875 17.9754H16.875C17.0408 17.9754 17.1997 17.9095 17.317 17.7923C17.4342 17.6751 17.5 17.5162 17.5 17.3504V9.85039C17.5006 9.68605 17.4685 9.52324 17.4056 9.37142C17.3427 9.21959 17.2502 9.08179 17.1336 8.96602ZM16.25 16.7254H12.5V12.3504C12.5 12.1846 12.4342 12.0257 12.3169 11.9084C12.1997 11.7912 12.0408 11.7254 11.875 11.7254H8.12501C7.95925 11.7254 7.80028 11.7912 7.68307 11.9084C7.56586 12.0257 7.50001 12.1846 7.50001 12.3504V16.7254H3.75001V9.85039L10 3.60039L16.25 9.85039V16.7254Z" fill="#343330"/>
</svg>
