<svg width="131" height="46" viewBox="0 0 131 46" fill="none" xmlns="http://www.w3.org/2000/svg">
<path d="M14.2061 8.90094L25.6501 13.9872V25.0074L14.2061 20.345V8.90094Z" fill="#5C5C5C"/>
<path d="M37.9421 8.90094L26.498 13.9872V25.0074L37.9421 19.4973V8.90094Z" fill="#D51100"/>
<path d="M26.074 13.1395L14.2061 7.84129L26.074 2.54312L37.9419 7.84129L26.074 13.1395Z" fill="white"/>
<path d="M26.7163 27.2497L38.1604 32.336V43.3562L26.7163 38.6938V27.2497Z" fill="#5C5C5C"/>
<path d="M50.4524 27.2497L39.0083 32.336V43.3562L50.4524 37.8461V27.2497Z" fill="#D51100"/>
<path d="M38.5842 31.4883L26.7163 26.1901L38.5842 20.8919L50.4521 26.1901L38.5842 31.4883Z" fill="white"/>
<path d="M1.69531 27.2497L13.1394 32.336V43.3562L1.69531 38.6938V27.2497Z" fill="#5C5C5C"/>
<path d="M25.4314 27.2497L13.9873 32.336V43.3562L25.4314 37.8461V27.2497Z" fill="#D51100"/>
<path d="M13.5632 31.4883L1.69531 26.1901L13.5632 20.8919L25.4311 26.1901L13.5632 31.4883Z" fill="white"/>
<path d="M69.6787 9.01327C69.603 8.34092 69.2905 7.82009 68.7412 7.45077C68.192 7.07672 67.5007 6.88969 66.6673 6.88969C66.0708 6.88969 65.5547 6.98439 65.1191 7.17378C64.6834 7.35844 64.3449 7.61412 64.1034 7.94083C63.8667 8.2628 63.7483 8.62975 63.7483 9.04168C63.7483 9.38732 63.8288 9.68562 63.9898 9.93656C64.1555 10.1875 64.3709 10.3982 64.6361 10.5687C64.906 10.7344 65.1948 10.8741 65.5026 10.9877C65.8103 11.0966 66.1063 11.1866 66.3904 11.2576L67.8108 11.6269C68.2748 11.7405 68.7507 11.8944 69.2384 12.0886C69.7261 12.2827 70.1782 12.5384 70.5949 12.8556C71.0116 13.1728 71.3477 13.5658 71.6034 14.0346C71.8638 14.5033 71.9941 15.0644 71.9941 15.7178C71.9941 16.5417 71.781 17.2732 71.3548 17.9124C70.9334 18.5516 70.3203 19.0559 69.5154 19.4252C68.7152 19.7945 67.7469 19.9792 66.6105 19.9792C65.5215 19.9792 64.5793 19.8064 63.7838 19.4607C62.9884 19.1151 62.3657 18.625 61.9159 17.9905C61.4661 17.3513 61.2175 16.5938 61.1702 15.7178H63.3719C63.4145 16.2434 63.585 16.6814 63.8833 17.0317C64.1863 17.3774 64.5722 17.6354 65.0409 17.8059C65.5144 17.9716 66.0329 18.0545 66.5963 18.0545C67.2166 18.0545 67.7682 17.9574 68.2512 17.7633C68.7388 17.5644 69.1224 17.2898 69.4017 16.9394C69.6811 16.5843 69.8208 16.17 69.8208 15.6965C69.8208 15.2656 69.6977 14.9129 69.4514 14.6383C69.21 14.3636 68.8809 14.1364 68.4642 13.9565C68.0523 13.7765 67.5859 13.6179 67.0651 13.4806L65.3463 13.0118C64.1816 12.6946 63.2583 12.2282 62.5764 11.6127C61.8994 10.9972 61.5608 10.1828 61.5608 9.16952C61.5608 8.33145 61.7881 7.59992 62.2426 6.97492C62.6972 6.34992 63.3127 5.86459 64.0892 5.51895C64.8657 5.16857 65.7417 4.99338 66.7171 4.99338C67.7019 4.99338 68.5708 5.1662 69.3236 5.51185C70.0812 5.85749 70.6778 6.33335 71.1134 6.93941C71.549 7.54073 71.7762 8.23202 71.7952 9.01327H69.6787ZM79.5384 8.82861V10.5332H73.5796V8.82861H79.5384ZM75.1776 6.21497H77.3012V16.5346C77.3012 16.9465 77.3628 17.2566 77.4859 17.465C77.609 17.6686 77.7676 17.8083 77.9617 17.884C78.1606 17.955 78.376 17.9905 78.608 17.9905C78.7785 17.9905 78.9276 17.9787 79.0555 17.955C79.1833 17.9314 79.2828 17.9124 79.3538 17.8982L79.7373 19.6525C79.6142 19.6998 79.439 19.7472 79.2117 19.7945C78.9845 19.8466 78.7004 19.875 78.3595 19.8797C77.8008 19.8892 77.2799 19.7898 76.797 19.5815C76.314 19.3731 75.9234 19.0511 75.6251 18.6155C75.3268 18.1799 75.1776 17.6331 75.1776 16.9749V6.21497ZM86.3655 19.9579C85.3428 19.9579 84.4503 19.7235 83.6879 19.2547C82.9256 18.786 82.3338 18.1302 81.9124 17.2874C81.491 16.4446 81.2803 15.4598 81.2803 14.3329C81.2803 13.2012 81.491 12.2117 81.9124 11.3641C82.3338 10.5166 82.9256 9.85844 83.6879 9.38969C84.4503 8.92094 85.3428 8.68657 86.3655 8.68657C87.3882 8.68657 88.2807 8.92094 89.0431 9.38969C89.8054 9.85844 90.3972 10.5166 90.8186 11.3641C91.24 12.2117 91.4507 13.2012 91.4507 14.3329C91.4507 15.4598 91.24 16.4446 90.8186 17.2874C90.3972 18.1302 89.8054 18.786 89.0431 19.2547C88.2807 19.7235 87.3882 19.9579 86.3655 19.9579ZM86.3726 18.1752C87.0355 18.1752 87.5847 18 88.0203 17.6496C88.4559 17.2993 88.7779 16.8329 88.9862 16.2505C89.1993 15.6681 89.3058 15.0265 89.3058 14.3258C89.3058 13.6297 89.1993 12.9905 88.9862 12.4082C88.7779 11.821 88.4559 11.3499 88.0203 10.9948C87.5847 10.6397 87.0355 10.4621 86.3726 10.4621C85.705 10.4621 85.151 10.6397 84.7107 10.9948C84.2751 11.3499 83.9507 11.821 83.7377 12.4082C83.5293 12.9905 83.4252 13.6297 83.4252 14.3258C83.4252 15.0265 83.5293 15.6681 83.7377 16.2505C83.9507 16.8329 84.2751 17.2993 84.7107 17.6496C85.151 18 85.705 18.1752 86.3726 18.1752ZM98.4163 19.9579C97.3604 19.9579 96.4513 19.7188 95.689 19.2405C94.9314 18.7576 94.349 18.0923 93.9419 17.2448C93.5347 16.3973 93.3311 15.4266 93.3311 14.3329C93.3311 13.2249 93.5394 12.2472 93.9561 11.3996C94.3727 10.5474 94.9598 9.88211 95.7174 9.40389C96.475 8.92567 97.3675 8.68657 98.395 8.68657C99.2236 8.68657 99.9622 8.84045 100.611 9.14821C101.26 9.45124 101.783 9.87738 102.18 10.4266C102.583 10.9759 102.822 11.6174 102.898 12.3513H100.831C100.717 11.84 100.457 11.3996 100.05 11.0303C99.6473 10.661 99.1076 10.4763 98.4305 10.4763C97.8386 10.4763 97.3202 10.6326 96.8751 10.9451C96.4347 11.2529 96.0915 11.6932 95.8453 12.2661C95.599 12.8343 95.4759 13.5066 95.4759 14.2832C95.4759 15.0786 95.5967 15.7652 95.8382 16.3428C96.0796 16.9205 96.4205 17.3679 96.8609 17.6851C97.306 18.0024 97.8292 18.161 98.4305 18.161C98.8329 18.161 99.1975 18.0876 99.5242 17.9408C99.8557 17.7893 100.133 17.5739 100.355 17.2945C100.582 17.0152 100.741 16.679 100.831 16.286H102.898C102.822 16.9915 102.592 17.6212 102.209 18.1752C101.825 18.7292 101.312 19.1648 100.668 19.482C100.028 19.7993 99.278 19.9579 98.4163 19.9579ZM107.122 16.0374L107.108 13.4451H107.477L111.824 8.82861H114.366L109.409 14.0843H109.075L107.122 16.0374ZM105.169 19.7377V5.19225H107.292V19.7377H105.169ZM112.058 19.7377L108.152 14.553L109.615 13.0687L114.665 19.7377H112.058ZM73.8264 29.9224H71.6105C71.5253 29.4489 71.3667 29.0322 71.1347 28.6724C70.9027 28.3125 70.6186 28.0071 70.2824 27.7562C69.9462 27.5052 69.5698 27.3158 69.1531 27.188C68.7412 27.0601 68.3032 26.9962 67.8392 26.9962C67.0012 26.9962 66.2507 27.2069 65.5878 27.6283C64.9297 28.0497 64.4088 28.6676 64.0253 29.482C63.6465 30.2964 63.4571 31.2907 63.4571 32.465C63.4571 33.6487 63.6465 34.6477 64.0253 35.4621C64.4088 36.2765 64.932 36.8921 65.5949 37.3087C66.2578 37.7254 67.0035 37.9337 67.8321 37.9337C68.2914 37.9337 68.727 37.8722 69.1389 37.7491C69.5556 37.6212 69.932 37.4342 70.2682 37.188C70.6044 36.9418 70.8885 36.6411 71.1205 36.286C71.3572 35.9261 71.5206 35.5142 71.6105 35.0502L73.8264 35.0573C73.7081 35.7723 73.4784 36.4304 73.1375 37.0317C72.8013 37.6283 72.3681 38.1444 71.8378 38.58C71.3122 39.0109 70.7109 39.3447 70.0338 39.5815C69.3567 39.8182 68.6181 39.9366 67.8179 39.9366C66.5584 39.9366 65.4363 39.6383 64.4514 39.0417C63.4666 38.4404 62.6901 37.581 62.1219 36.4636C61.5584 35.3461 61.2767 34.0133 61.2767 32.465C61.2767 30.9119 61.5608 29.5791 62.129 28.4664C62.6972 27.349 63.4737 26.492 64.4585 25.8954C65.4434 25.294 66.5632 24.9934 67.8179 24.9934C68.5897 24.9934 69.3094 25.1047 69.977 25.3272C70.6494 25.545 71.253 25.867 71.7881 26.2931C72.3231 26.7145 72.7658 27.2306 73.1162 27.8414C73.4666 28.4475 73.7033 29.1411 73.8264 29.9224ZM80.9838 39.9579C79.9089 39.9579 78.9833 39.7282 78.2068 39.269C77.435 38.8049 76.8384 38.1539 76.417 37.3158C76.0003 36.473 75.792 35.4858 75.792 34.3542C75.792 33.2368 76.0003 32.2519 76.417 31.3996C76.8384 30.5474 77.4255 29.8821 78.1784 29.4039C78.9359 28.9257 79.8213 28.6866 80.8346 28.6866C81.4501 28.6866 82.0467 28.7884 82.6244 28.992C83.202 29.1956 83.7205 29.5152 84.1798 29.9508C84.6391 30.3864 85.0013 30.9522 85.2664 31.6482C85.5316 32.3395 85.6642 33.1799 85.6642 34.1695V34.9224H76.9923V33.3315H83.5832C83.5832 32.7727 83.4695 32.2779 83.2423 31.8471C83.015 31.4115 82.6954 31.0682 82.2835 30.8172C81.8763 30.5663 81.3981 30.4408 80.8488 30.4408C80.2522 30.4408 79.7314 30.5876 79.2863 30.8812C78.846 31.17 78.5051 31.5488 78.2636 32.0175C78.0268 32.4815 77.9085 32.9858 77.9085 33.5303V34.7732C77.9085 35.5024 78.0363 36.1226 78.292 36.634C78.5524 37.1454 78.9146 37.536 79.3786 37.8059C79.8427 38.071 80.3848 38.2036 81.0051 38.2036C81.4075 38.2036 81.7745 38.1468 82.1059 38.0332C82.4374 37.9148 82.7238 37.7396 82.9653 37.5076C83.2068 37.2756 83.3914 36.9891 83.5193 36.6482L85.5292 37.0104C85.3682 37.6023 85.0794 38.1208 84.6627 38.5658C84.2508 39.0062 83.7323 39.3494 83.1073 39.5957C82.4871 39.8371 81.7792 39.9579 80.9838 39.9579ZM90.1439 33.2604V39.7377H88.0203V28.8286H90.0587V30.6042H90.1936C90.4446 30.0265 90.8376 29.5625 91.3726 29.2121C91.9124 28.8618 92.5918 28.6866 93.411 28.6866C94.1543 28.6866 94.8054 28.8428 95.3641 29.1553C95.9228 29.4631 96.356 29.9224 96.6638 30.5332C96.9716 31.144 97.1254 31.8992 97.1254 32.7988V39.7377H95.0019V33.0545C95.0019 32.2637 94.7959 31.6458 94.384 31.2008C93.972 30.751 93.4062 30.5261 92.6865 30.5261C92.1941 30.5261 91.7561 30.6326 91.3726 30.8457C90.9938 31.0587 90.6932 31.3712 90.4706 31.7832C90.2528 32.1904 90.1439 32.6828 90.1439 33.2604ZM105.066 28.8286V30.5332H99.107V28.8286H105.066ZM100.705 26.215H102.829V36.5346C102.829 36.9465 102.89 37.2566 103.013 37.465C103.136 37.6686 103.295 37.8083 103.489 37.884C103.688 37.955 103.903 37.9905 104.135 37.9905C104.306 37.9905 104.455 37.9787 104.583 37.955C104.711 37.9314 104.81 37.9124 104.881 37.8982L105.265 39.6525C105.142 39.6998 104.966 39.7472 104.739 39.7945C104.512 39.8466 104.228 39.875 103.887 39.8797C103.328 39.8892 102.807 39.7898 102.324 39.5815C101.841 39.3731 101.451 39.0511 101.152 38.6155C100.854 38.1799 100.705 37.6331 100.705 36.9749V26.215ZM107.415 39.7377V28.8286H109.467V30.5616H109.581C109.78 29.9744 110.13 29.5128 110.632 29.1766C111.139 28.8357 111.712 28.6653 112.351 28.6653C112.484 28.6653 112.64 28.67 112.82 28.6795C113.004 28.6889 113.149 28.7008 113.253 28.715V30.7462C113.168 30.7225 113.016 30.6965 112.798 30.6681C112.581 30.635 112.363 30.6184 112.145 30.6184C111.643 30.6184 111.196 30.7249 110.803 30.938C110.414 31.1463 110.107 31.4375 109.879 31.8116C109.652 32.1809 109.538 32.6023 109.538 33.0758V39.7377H107.415ZM118.168 39.9792C117.476 39.9792 116.851 39.8513 116.293 39.5957C115.734 39.3352 115.291 38.9588 114.965 38.4664C114.643 37.974 114.482 37.3703 114.482 36.6553C114.482 36.0398 114.6 35.5332 114.837 35.1354C115.073 34.7377 115.393 34.4228 115.796 34.1908C116.198 33.9588 116.648 33.7836 117.145 33.6653C117.642 33.5469 118.149 33.4569 118.665 33.3954C119.318 33.3196 119.849 33.2581 120.256 33.2107C120.663 33.1586 120.959 33.0758 121.144 32.9621C121.328 32.8485 121.421 32.6638 121.421 32.4082V32.3584C121.421 31.7382 121.245 31.2576 120.895 30.9167C120.549 30.5758 120.033 30.4053 119.347 30.4053C118.632 30.4053 118.068 30.5639 117.656 30.8812C117.249 31.1937 116.967 31.5417 116.811 31.9252L114.815 31.4707C115.052 30.8078 115.398 30.2727 115.852 29.8655C116.312 29.4536 116.84 29.1553 117.436 28.9707C118.033 28.7813 118.66 28.6866 119.318 28.6866C119.754 28.6866 120.216 28.7386 120.703 28.8428C121.196 28.9422 121.655 29.1269 122.081 29.3968C122.512 29.6667 122.865 30.0526 123.139 30.5545C123.414 31.0516 123.551 31.6979 123.551 32.4934V39.7377H121.477V38.2462H121.392C121.255 38.5208 121.049 38.7907 120.774 39.0559C120.5 39.321 120.147 39.5412 119.716 39.7164C119.285 39.8916 118.769 39.9792 118.168 39.9792ZM118.629 38.2746C119.216 38.2746 119.718 38.1586 120.135 37.9266C120.556 37.6946 120.876 37.3916 121.094 37.0175C121.316 36.6387 121.428 36.2339 121.428 35.803V34.3968C121.352 34.4725 121.205 34.5436 120.987 34.6099C120.774 34.6714 120.53 34.7259 120.256 34.7732C119.981 34.8158 119.714 34.8561 119.453 34.894C119.193 34.9271 118.975 34.9555 118.8 34.9792C118.388 35.0313 118.011 35.1189 117.671 35.242C117.334 35.3651 117.064 35.5426 116.861 35.7746C116.662 36.0019 116.563 36.3049 116.563 36.6837C116.563 37.2093 116.757 37.607 117.145 37.8769C117.533 38.1421 118.028 38.2746 118.629 38.2746ZM128.503 25.1922V39.7377H126.38V25.1922H128.503Z" fill="#5C5C5C"/>
</svg>
