<svg width="20" height="21" viewBox="0 0 20 21" fill="none" xmlns="http://www.w3.org/2000/svg">
<path d="M15 7.97542C15 10.2028 13.0883 12.0465 10.625 12.316V12.9754C10.625 13.1412 10.5592 13.3002 10.4419 13.4174C10.3247 13.5346 10.1658 13.6004 10 13.6004C9.83424 13.6004 9.67527 13.5346 9.55806 13.4174C9.44085 13.3002 9.375 13.1412 9.375 12.9754V11.7254C9.375 11.5597 9.44085 11.4007 9.55806 11.2835C9.67527 11.1663 9.83424 11.1004 10 11.1004C12.068 11.1004 13.75 9.69886 13.75 7.97542C13.75 6.25198 12.068 4.85042 10 4.85042C7.93203 4.85042 6.25 6.25198 6.25 7.97542C6.25 8.14118 6.18415 8.30015 6.06694 8.41736C5.94973 8.53457 5.79076 8.60042 5.625 8.60042C5.45924 8.60042 5.30027 8.53457 5.18306 8.41736C5.06585 8.30015 5 8.14118 5 7.97542C5 5.56292 7.24297 3.60042 10 3.60042C12.757 3.60042 15 5.56292 15 7.97542ZM10 15.4754C9.75277 15.4754 9.5111 15.5487 9.30554 15.6861C9.09998 15.8234 8.93976 16.0187 8.84515 16.2471C8.75054 16.4755 8.72579 16.7268 8.77402 16.9693C8.82225 17.2118 8.9413 17.4345 9.11612 17.6093C9.29093 17.7841 9.51366 17.9032 9.75614 17.9514C9.99861 17.9996 10.2499 17.9749 10.4784 17.8803C10.7068 17.7857 10.902 17.6254 11.0393 17.4199C11.1767 17.2143 11.25 16.9726 11.25 16.7254C11.25 16.3939 11.1183 16.076 10.8839 15.8415C10.6495 15.6071 10.3315 15.4754 10 15.4754Z" fill="#343330"/>
</svg>
